# xmcd
#
# Track frame offsets: 
#        150
#        20738
#        33638
#        50875
#        66813
#        80913
#        94813
#        112000
#        127820
#        143735
#        157688
#        170410
#        187650
#        205063
#        218000
#        237625
#        252038
#
# Disc length: 3530 seconds
#
# Revision: 0
# Processed by: cddbd v1.5.2PL0 Copyright (c) Steve Scherf et al.
# Submitted via: ExactAudioCopy v0.95b4
#
DISCID=ec0dc811
DTITLE=Willie Nelson - His Greatest Hits And Finest Perfomances  d3of3
DYEAR=1994
DGENRE=Country
TTITLE0=Desperados Waiting For The Train
TTITLE1=The Midnight Rider
TTITLE2=Seven Spanish Angels
TTITLE3=Reasons To Quit
TTITLE4=Old Friends
TTITLE5=I Saw The Light
TTITLE6=Take It To The Limit
TTITLE7=Whiskey River
TTITLE8=Mammas Don't Let Your Babies Grow Up To Be Cowboys
TTITLE9=If You Could Touch Her At All
TTITLE10=Good Hearted Woman
TTITLE11=Uncloudy Day
TTITLE12=Without A Song
TTITLE13=Me And Paul
TTITLE14=Last Thing I Needed First Thing This Morning
TTITLE15=Why Do I Have To Choose
TTITLE16=Remember Me
EXTD=
EXTT0=
EXTT1=
EXTT2=
EXTT3=
EXTT4=
EXTT5=
EXTT6=
EXTT7=
EXTT8=
EXTT9=
EXTT10=
EXTT11=
EXTT12=
EXTT13=
EXTT14=
EXTT15=
EXTT16=
PLAYORDER=
